<svg width="295" height="311" viewBox="0 0 295 311" fill="none" xmlns="http://www.w3.org/2000/svg">
<path fill-rule="evenodd" clip-rule="evenodd" d="M82.6196 1.5502C73.0155 3.79253 66.6081 7.13858 60.0831 13.3197C42.2133 30.2479 41.3378 59.0498 58.1524 76.8304C60.4884 79.3001 63.3993 82.0147 64.6213 82.8627L66.844 84.4037L64.7891 85.3302C60.5718 87.2312 59.8608 88.5061 48.12 115.238L36.9457 140.68L21.2387 151.435C12.5993 157.35 4.77501 163.05 3.85103 164.1C-0.134141 168.629 0.0859566 176.11 4.33917 180.677C7.256 183.81 12.5601 185.182 16.6995 183.875C19.8179 182.891 54.9947 158.856 56.6923 156.549C57.3777 155.619 60.3659 149.277 63.3328 142.455C66.2998 135.634 68.8527 130.051 69.0058 130.049C69.1589 130.048 72.4037 143.604 76.2156 160.175C80.0281 176.745 84.0198 193.984 85.0865 198.483L87.0265 206.663L87.7685 234.201C88.1842 249.632 88.7622 262.542 89.0831 263.564C89.398 264.568 90.1465 266.22 90.7464 267.238C92.9827 271.032 120.948 305.225 123.077 306.769C125.588 308.589 129.807 310 132.741 310C133.83 310 136.047 309.606 137.666 309.125C145.181 306.891 149.792 300.7 149.845 292.772C149.867 289.536 149.607 288.377 148.252 285.683C147.361 283.911 141.205 275.713 134.571 267.465L122.509 252.469L121.912 228.514C121.583 215.338 121.452 204.418 121.62 204.247C121.909 203.953 131.846 201.482 131.993 201.668C132.03 201.716 132.837 211.939 133.784 224.386C135.867 251.748 136.173 254.221 137.88 257.523C139.104 259.891 166.908 291.971 174.004 299.202C178.913 304.207 184.333 305.895 190.449 304.327C198.885 302.164 204.059 295.107 203.435 286.615C203.285 284.569 202.666 281.944 202.006 280.553C201.338 279.144 194.238 270.609 185.339 260.514C173.433 247.009 169.772 242.518 169.557 241.156C169.404 240.18 168.511 229.075 167.573 216.478C165.898 193.987 165.82 193.365 163.235 181.851C159.358 164.58 159.485 166.214 161.97 165.536C171.276 162.999 184.097 158.978 185.214 158.245C185.966 157.752 187.017 156.358 187.551 155.146C188.662 152.626 188.783 152.625 194.03 155.137C200.652 158.306 203.061 161.176 210.88 175.22C220.721 192.899 224.99 198.934 233.338 206.974C241.569 214.902 246.518 217.825 266.054 226.3C280.201 232.437 282.667 233.872 288.352 239.283C292.509 243.239 292.874 243.468 293.416 242.454C293.737 241.854 294 240.332 294 239.074C294 236.969 293.705 236.495 290.304 233.152C285.301 228.232 280.011 225.058 268.244 219.916C254.419 213.874 245.484 209.164 239.924 204.987C231.563 198.706 224.485 189.874 216.576 175.853C208.084 160.797 206.237 157.864 203.137 154.507C199.455 150.519 195.596 147.916 191.531 146.679C189.909 146.186 188.235 145.602 187.81 145.381C187.385 145.161 186.219 142.185 185.219 138.771C184.22 135.355 183.096 132.367 182.723 132.13C182.35 131.892 181.387 131.695 180.582 131.69C177.97 131.675 176.275 130.666 161.522 120.332C148.936 111.515 145.643 108.769 146.558 107.854C146.642 107.769 153.191 112.268 161.109 117.852C169.028 123.435 176.51 128.457 177.735 129.012C179.508 129.814 183.769 130.301 198.591 131.396C208.836 132.153 218.776 132.773 220.68 132.773C227.63 132.773 232.868 128.188 233.411 121.631C233.72 117.905 232.812 115.197 230.329 112.437C226.897 108.623 225.949 108.411 205.538 106.903C195.442 106.157 186.884 105.371 186.52 105.156C186.156 104.942 175.265 97.3168 162.317 88.2127C149.37 79.1082 137.861 71.2769 136.744 70.8096C135.626 70.3422 133.672 69.9442 132.401 69.9245L130.089 69.8896L132.016 66.0599C137.588 54.9845 138.048 40.4704 133.196 28.7701C129.105 18.9043 121.115 10.2545 111.766 5.57026C105.664 2.51268 100.266 1.22846 92.6983 1.03324C88.2136 0.91763 84.5172 1.10685 82.6196 1.5502ZM101.642 18.7865C107.352 20.4263 111.31 22.4287 113.688 24.881C116.332 27.6081 119.83 34.3585 121.282 39.5385C124.007 49.2554 122.922 63.1457 118.982 68.998L117.744 70.8379L71.4514 79.7724L69.0858 77.5071C63.9893 72.626 59.0889 64.2216 56.8884 56.5872C55.8555 53.0039 55.6627 51.0152 55.6577 43.8863C55.6528 35.8647 55.7264 35.2757 57.1031 32.3376C60.3157 25.4819 65.774 21.7187 76.7767 18.7734C82.4894 17.2444 83.3764 17.1528 90.2468 17.3812C95.5177 17.5568 98.7467 17.9549 101.642 18.7865ZM152.762 72.9259C149.541 73.8519 146.91 74.7516 146.917 74.9256C146.928 75.2293 170.536 91.9727 171.433 92.3124C172.169 92.5916 167.271 76.6019 166.146 75.0554C165.031 73.522 160.869 71.1215 159.456 71.1967C158.996 71.2218 155.983 71.9994 152.762 72.9259ZM129.778 98.9794C131.389 99.7603 132.404 100.763 133.225 102.388C134.694 105.294 137.644 117.888 137.642 121.244C137.639 124.626 136.067 127.119 133.135 128.393C131.869 128.942 120.846 131.775 108.638 134.688C91.9247 138.676 85.9669 139.896 84.5188 139.623C82.2508 139.198 79.1798 136.667 78.3583 134.548C77.1515 131.434 74.4477 118.955 74.4499 116.508C74.4521 113.404 75.9018 110.818 78.3495 109.551C80.3337 108.524 123.396 97.9875 125.895 97.9172C126.774 97.8926 128.521 98.3703 129.778 98.9794ZM101.995 105.016C78.1425 110.79 77.8728 110.891 76.2722 114.652C75.5733 116.295 75.6904 117.171 77.7481 125.684C79.7371 133.913 80.1599 135.079 81.5894 136.284C82.4736 137.028 83.986 137.782 84.9508 137.96C86.1744 138.185 93.6294 136.617 109.577 132.782C139.332 125.626 137.98 126.757 134.358 112.047C133.144 107.121 131.733 102.628 131.222 102.062C129.868 100.564 127.57 99.5008 125.822 99.5624C124.983 99.5918 114.261 102.046 101.995 105.016Z" fill="white"/>
<path d="M96 41C96 42.1046 96.1046 42 95 42C93.8954 42 94 42.1046 94 41C94 39.8954 93.8954 40 95 40C96.1046 40 96 39.8954 96 41Z" fill="white"/>
<path fill-rule="evenodd" clip-rule="evenodd" d="M69.2821 69.2373C71.5226 72.71 75.6685 74.4468 79.7151 73.6078L107.743 67.7971C111.558 67.0062 114.567 64.0717 115.452 60.2776L117.001 53.6382C117.33 52.2295 117.349 50.7663 117.057 49.3494L114.713 37.9651C114.252 35.7231 113.035 33.7073 111.266 32.2544L103.169 25.6029C101.138 23.935 98.5329 23.1334 95.916 23.3713L78.8766 24.9203C78.2933 24.9733 77.7158 25.0775 77.1508 25.2316L71.1252 26.8749C68.4904 27.5935 66.2642 29.3584 64.9635 31.7597L62.036 37.1643C61.0373 39.008 60.6435 41.119 60.9101 43.1988L62.712 57.2535C62.9016 58.7324 63.4195 60.1502 64.2278 61.4032L69.2821 69.2373ZM74 45C75.1046 45 75 45.1046 75 44C75 42.8954 75.1046 43.1988 74 43.1988C72.8954 43.1988 73 42.8954 73 44C73 45.1046 72.8954 45 74 45Z" fill="white"/>
<path d="M71 56.5C71 56.5 72.5 66.5 91 63.5C106.5 60.9865 101 50 101 50M82.6196 1.5502C73.0155 3.79253 66.6081 7.13858 60.0831 13.3197C42.2133 30.2479 41.3378 59.0498 58.1524 76.8304C60.4884 79.3001 63.3993 82.0147 64.6213 82.8627L66.844 84.4037L64.7891 85.3302C60.5718 87.2312 59.8608 88.5061 48.12 115.238L36.9457 140.68L21.2387 151.435C12.5993 157.35 4.77501 163.05 3.85103 164.1C-0.134141 168.629 0.0859566 176.11 4.33917 180.677C7.256 183.81 12.5601 185.182 16.6995 183.875C19.8179 182.891 54.9947 158.856 56.6923 156.549C57.3777 155.619 60.3659 149.277 63.3328 142.455C66.2998 135.634 68.8527 130.051 69.0058 130.049C69.1589 130.048 72.4037 143.604 76.2156 160.175C80.0281 176.745 84.0198 193.984 85.0865 198.483L87.0265 206.663L87.7685 234.201C88.1842 249.632 88.7622 262.542 89.0831 263.564C89.398 264.568 90.1465 266.22 90.7464 267.238C92.9827 271.032 120.948 305.225 123.077 306.769C125.588 308.589 129.807 310 132.741 310C133.83 310 136.047 309.606 137.666 309.125C145.181 306.891 149.792 300.7 149.845 292.772C149.867 289.536 149.607 288.377 148.252 285.683C147.361 283.911 141.205 275.713 134.571 267.465L122.509 252.469L121.912 228.514C121.583 215.338 121.452 204.418 121.62 204.247C121.909 203.953 131.846 201.482 131.993 201.668C132.03 201.716 132.837 211.939 133.784 224.386C135.867 251.748 136.173 254.221 137.88 257.523C139.104 259.891 166.908 291.971 174.004 299.202C178.913 304.207 184.333 305.895 190.449 304.327C198.885 302.164 204.059 295.107 203.435 286.615C203.285 284.569 202.666 281.944 202.006 280.553C201.338 279.144 194.238 270.609 185.339 260.514C173.433 247.009 169.772 242.518 169.557 241.156C169.404 240.18 168.511 229.075 167.573 216.478C165.898 193.987 165.82 193.365 163.235 181.851C159.358 164.58 159.485 166.214 161.97 165.536C171.276 162.999 184.097 158.978 185.214 158.245C185.966 157.752 187.017 156.358 187.551 155.146C188.662 152.626 188.783 152.625 194.03 155.137C200.652 158.306 203.061 161.176 210.88 175.22C220.721 192.899 224.99 198.934 233.338 206.974C241.569 214.902 246.518 217.825 266.054 226.3C280.201 232.437 282.667 233.872 288.352 239.283C292.509 243.239 292.874 243.468 293.416 242.454C293.737 241.854 294 240.332 294 239.074C294 236.969 293.705 236.495 290.304 233.152C285.301 228.232 280.011 225.058 268.244 219.916C254.419 213.874 245.484 209.164 239.924 204.987C231.563 198.706 224.485 189.874 216.576 175.853C208.084 160.797 206.237 157.864 203.137 154.507C199.455 150.519 195.596 147.916 191.531 146.679C189.909 146.186 188.235 145.602 187.81 145.381C187.385 145.161 186.219 142.185 185.219 138.771C184.22 135.355 183.096 132.367 182.723 132.13C182.35 131.892 181.387 131.695 180.582 131.69C177.97 131.675 176.275 130.666 161.522 120.332C148.936 111.515 145.643 108.769 146.558 107.854C146.642 107.769 153.191 112.268 161.109 117.852C169.028 123.435 176.51 128.457 177.735 129.012C179.508 129.814 183.769 130.301 198.591 131.396C208.836 132.153 218.776 132.773 220.68 132.773C227.63 132.773 232.868 128.188 233.411 121.631C233.72 117.905 232.812 115.197 230.329 112.437C226.897 108.623 225.949 108.411 205.538 106.903C195.442 106.157 186.884 105.371 186.52 105.156C186.156 104.942 175.265 97.3168 162.317 88.2127C149.37 79.1082 137.861 71.2769 136.744 70.8096C135.626 70.3422 133.672 69.9442 132.401 69.9245L130.089 69.8896L132.016 66.0599C137.588 54.9845 138.048 40.4704 133.196 28.7701C129.105 18.9043 121.115 10.2545 111.766 5.57026C105.664 2.51268 100.266 1.22846 92.6983 1.03324C88.2136 0.91763 84.5172 1.10685 82.6196 1.5502ZM101.642 18.7865C107.352 20.4263 111.31 22.4287 113.688 24.881C116.332 27.6081 119.83 34.3585 121.282 39.5385C124.007 49.2554 122.922 63.1457 118.982 68.998L117.744 70.8379L71.4514 79.7724L69.0858 77.5071C63.9893 72.626 59.0889 64.2216 56.8884 56.5872C55.8555 53.0039 55.6627 51.0152 55.6577 43.8863C55.6528 35.8647 55.7264 35.2757 57.1031 32.3376C60.3157 25.4819 65.774 21.7187 76.7767 18.7734C82.4894 17.2444 83.3764 17.1528 90.2468 17.3812C95.5177 17.5568 98.7467 17.9549 101.642 18.7865ZM152.762 72.9259C149.541 73.8519 146.91 74.7516 146.917 74.9256C146.928 75.2293 170.536 91.9727 171.433 92.3124C172.169 92.5916 167.271 76.6019 166.146 75.0554C165.031 73.522 160.869 71.1215 159.456 71.1967C158.996 71.2218 155.983 71.9994 152.762 72.9259ZM129.778 98.9794C131.389 99.7603 132.404 100.763 133.225 102.388C134.694 105.294 137.644 117.888 137.642 121.244C137.639 124.626 136.067 127.119 133.135 128.393C131.869 128.942 120.846 131.775 108.638 134.688C91.9247 138.676 85.9669 139.896 84.5188 139.623C82.2508 139.198 79.1798 136.667 78.3583 134.548C77.1515 131.434 74.4477 118.955 74.4499 116.508C74.4521 113.404 75.9018 110.818 78.3495 109.551C80.3337 108.524 123.396 97.9875 125.895 97.9172C126.774 97.8926 128.521 98.3703 129.778 98.9794ZM101.995 105.016C78.1425 110.79 77.8728 110.891 76.2722 114.652C75.5733 116.295 75.6904 117.171 77.7481 125.684C79.7371 133.913 80.1599 135.079 81.5894 136.284C82.4736 137.028 83.986 137.782 84.9508 137.96C86.1744 138.185 93.6294 136.617 109.577 132.782C139.332 125.626 137.98 126.757 134.358 112.047C133.144 107.121 131.733 102.628 131.222 102.062C129.868 100.564 127.57 99.5008 125.822 99.5624C124.983 99.5918 114.261 102.046 101.995 105.016ZM79.7151 73.6078C75.6685 74.4468 71.5226 72.71 69.2821 69.2373L64.2278 61.4032C63.4195 60.1502 62.9016 58.7324 62.712 57.2535L60.9101 43.1988C60.6435 41.119 61.0373 39.008 62.036 37.1643L64.9635 31.7597C66.2642 29.3584 68.4904 27.5935 71.1252 26.8749L77.1508 25.2316C77.7158 25.0775 78.2933 24.9733 78.8766 24.9203L95.916 23.3713C98.5329 23.1334 101.138 23.935 103.169 25.6029L111.266 32.2544C113.035 33.7073 114.252 35.7231 114.713 37.9651L117.057 49.3494C117.349 50.7663 117.33 52.2295 117.001 53.6382L115.452 60.2776C114.567 64.0717 111.558 67.0062 107.743 67.7971L79.7151 73.6078ZM75 44C75 45.1046 75.1046 45 74 45C72.8954 45 73 45.1046 73 44C73 42.8954 72.8954 43.1988 74 43.1988C75.1046 43.1988 75 42.8954 75 44ZM96 41C96 42.1046 96.1046 42 95 42C93.8954 42 94 42.1046 94 41C94 39.8954 93.8954 40 95 40C96.1046 40 96 39.8954 96 41Z" stroke="black" stroke-width="2"/>
</svg>
