<svg width="340" height="340" viewBox="0 0 340 340" fill="none" xmlns="http://www.w3.org/2000/svg">
<path d="M170 340C263.888 340 340 263.888 340 170C340 76.1116 263.888 0 170 0C76.1116 0 0 76.1116 0 170C0 263.888 76.1116 340 170 340Z" fill="#88C9F9"/>
<path d="M284.562 224.287C274.957 220.604 276.666 221.945 270.744 209.355C264.823 196.775 261.234 192.724 247.917 191.25C234.591 189.786 235.092 190.825 231.389 184.167C227.687 177.499 212.671 185.971 203.056 189.683C193.413 193.385 195.793 201.45 192.828 200.695C189.853 199.958 182.373 198.041 174.949 192.129C167.545 186.198 180.456 181.57 184.167 177.877C187.879 174.165 177.178 176.186 173.467 173.948C169.755 171.738 163.116 178.396 157.194 172.456C151.263 166.534 154.974 157.647 154.238 150.243C153.492 142.829 163.852 141.355 170.52 139.873C177.178 138.399 182.354 139.882 182.354 148.76C182.354 157.647 190.504 160.613 188.285 150.233C186.066 139.854 190.504 136.907 193.479 131.722C196.436 126.537 201.621 119.123 208.279 108.016C214.947 96.9098 219.395 102.085 227.536 102.879C235.687 103.681 237.906 102.095 243.828 102.841C249.731 103.587 243.828 95.4364 246.057 87.2953C248.267 79.1542 256.417 80.6275 264.577 82.8564C272.718 85.0759 256.417 72.477 253.461 65.8187C250.486 59.1509 242.345 65.8187 237.179 54.712C231.956 43.6053 224.674 36.4181 218.007 35.4264C211.339 34.4253 220.132 49.5364 214.947 57.6775C209.743 65.8187 201.772 64.5437 193.602 64.5437C185.471 64.5437 177.915 57.6775 183.846 47.3075C189.758 36.947 201.063 38.0142 206.985 29.127C212.916 20.2492 185.924 21.0614 176.291 18.1053C166.657 15.1398 155.097 15.1681 145.473 22.5725C135.84 29.9675 115.242 32.2814 107.091 35.2375C98.95 38.1937 97.4861 30.3264 96.0128 24.3953C95.3516 21.7603 92.3483 20.9292 88.1172 21.0237C67.1505 32.5837 48.9889 48.5259 34.605 67.4998C36.8433 75.1214 47.6855 65.7148 49.8105 63.5898C52.03 61.3703 63.1366 64.3359 64.61 72.477C66.0928 80.6181 65.3561 89.5242 62.4 96.9286C59.4344 104.324 69.8044 114.694 75.7261 125.064C81.6572 135.443 88.3155 135.434 91.2811 135.434C94.2372 135.434 111.275 142.101 110.529 150.243C109.792 158.393 126.084 165.788 132.752 170.973C139.419 176.177 143.632 181.286 152.283 182.779C160.943 184.271 171.068 198.428 175.507 199.92C178.916 201.054 184.687 206.503 188.172 208.194C183.591 213.993 174.723 225.902 174.723 231.389C174.723 238.813 184.403 250.476 188.106 253.433C191.798 256.379 202.433 258.627 204.633 266.022C206.862 273.426 203.084 298.35 196.436 305.009C189.749 311.667 187.322 327.411 187.322 327.411C187.322 327.411 189.673 332.52 197.55 327.411C206.258 321.773 220.84 305.717 226.667 302.223C237.774 295.545 248.569 287.442 258.939 277.828C269.309 268.204 265.55 261.46 270.744 251.855C275.929 242.231 282.635 242.666 291.513 234.544C300.409 226.384 294.195 227.999 284.562 224.287Z" fill="#5C913B"/>
</svg>
