<svg width="324" height="318" viewBox="0 0 324 318" fill="none" xmlns="http://www.w3.org/2000/svg">
<circle cx="161.952" cy="155.952" r="116.32" transform="rotate(30.0761 161.952 155.952)" fill="white"/>
<path d="M265.887 110.544C266.623 110.262 267.22 110.026 267.663 109.848C269 112.92 270.201 116.045 271.265 119.215C270.829 119.332 270.265 119.481 269.592 119.657C267.91 120.096 265.555 120.696 262.869 121.34C257.487 122.631 250.81 124.089 245.539 124.787C239.575 125.578 233.67 126.814 227.949 128.012L227.931 128.016C217.928 130.11 208.538 132.069 200.077 131.493C191.695 130.923 184.263 127.866 178.138 119.88C173.106 113.32 174.472 105.74 175.963 97.7716L175.999 97.5793C177.528 89.4103 179.145 80.7688 172.131 73.9022C165.848 67.7513 158.487 68.129 151.353 68.4951L151.221 68.5019C144.856 68.8283 138.631 69.1237 132.686 65.4939C128.754 63.0936 124.393 59.0275 120.98 55.5118C119.282 53.7627 117.835 52.1662 116.812 51.0072C116.554 50.7148 116.323 50.4504 116.122 50.2185L129.215 45.4225C129.347 45.5784 129.505 45.764 129.686 45.9748C130.267 46.6502 131.087 47.5845 132.044 48.6211C133.947 50.6816 136.435 53.1948 138.679 54.8679C145.956 60.2924 154.189 58.8427 161.768 57.5081L161.927 57.4802C170.148 56.033 177.564 54.7877 183.687 60.7403C190.362 67.2286 188.567 75.3329 186.474 84.411L186.433 84.5882C184.526 92.8576 182.445 101.885 188.197 109.822C192.954 116.385 200.477 119.553 208.902 120.683C217.325 121.813 226.774 120.926 235.587 119.267C244.41 117.606 252.653 115.159 258.685 113.13C261.703 112.115 264.171 111.203 265.887 110.544ZM261.322 213.133C261.422 213.538 261.497 213.858 261.549 214.082C259.643 217.349 257.601 220.486 255.434 223.493C255.292 222.882 255.118 222.16 254.909 221.346C254.231 218.705 253.191 215.098 251.739 211.236C250.289 207.377 248.42 203.242 246.079 199.556C243.743 195.878 240.9 192.591 237.481 190.498C234.459 188.649 231.589 187.986 228.838 188.308C226.104 188.628 223.597 189.91 221.265 191.755C216.666 195.392 212.501 201.431 208.363 207.43L208.294 207.529C204.169 213.51 200.05 219.471 195.434 223.457C190.864 227.403 185.949 229.297 180.135 227.416C176.803 226.338 174.491 224.661 172.898 222.558C171.297 220.446 170.37 217.837 169.923 214.825C169.022 208.753 170.095 201.3 171.224 193.518L171.237 193.433C172.325 185.933 173.455 178.151 172.687 171.397C171.91 164.554 169.168 158.625 162.418 155.067C156.702 152.055 151.175 152.188 145.844 153.841C140.585 155.471 135.46 158.601 130.486 161.637L130.423 161.676C125.311 164.797 120.36 167.812 115.373 169.298C110.445 170.766 105.537 170.722 100.462 167.744C95.2293 164.673 93.0706 159.647 92.4933 153.512C91.9121 147.334 92.9529 140.208 93.9891 133.152L94.008 133.023C95.0648 125.828 96.1178 118.658 95.1927 113.011C94.7227 110.142 93.7318 107.58 91.9053 105.585C90.0695 103.58 87.4729 102.239 83.9644 101.668C77.9637 100.693 70.5601 102.642 64.7805 104.745C61.8654 105.807 59.315 106.926 57.4934 107.779C57.4187 107.814 57.3452 107.849 57.273 107.883L62.0465 98.3871C62.1739 98.3186 62.3453 98.2272 62.5574 98.1162C63.0668 97.8495 63.8101 97.4695 64.7404 97.0191C66.602 96.1179 69.2064 94.938 72.178 93.8224C78.1736 91.5714 85.4651 89.6606 91.1659 90.6373C94.3543 91.1836 96.5184 92.3888 97.9881 94.0339C99.4674 95.6897 100.326 97.8841 100.727 100.551C101.538 105.941 100.439 112.901 99.2532 120.337L99.2408 120.415C98.1137 127.484 96.9254 134.937 97.4692 141.463C98.0187 148.057 100.354 153.881 106.424 157.429C112.149 160.775 117.707 160.744 123.093 159.059C128.395 157.4 133.586 154.12 138.655 150.917L138.724 150.874C143.8 147.666 148.761 144.538 153.804 142.895C158.796 141.269 163.806 141.12 169.021 143.835C175.214 147.06 177.65 152.543 178.17 159.331C178.696 166.18 177.253 174.182 175.802 182.199L175.781 182.316C174.32 190.379 172.853 198.483 173.629 205.071C174.021 208.407 174.995 211.431 176.892 213.892C178.799 216.366 181.577 218.189 185.426 219.219C192.349 221.074 197.804 218.412 202.356 213.78C206.842 209.217 210.578 202.622 214.171 196.28L214.216 196.2C217.92 189.662 221.465 183.423 225.577 179.492C227.615 177.543 229.738 176.219 232.024 175.69C234.294 175.166 236.825 175.402 239.736 176.745C243.466 178.465 246.719 181.628 249.509 185.494C252.294 189.353 254.574 193.852 256.377 198.157C258.179 202.457 259.494 206.538 260.359 209.544C260.792 211.047 261.111 212.279 261.322 213.133ZM54.1147 109.716C50.1832 118.855 47.5025 128.283 46.0157 137.786L45.9886 137.959L45.9887 137.959C45.334 142.186 44.9153 146.426 44.7277 150.663C42.8551 192.943 63.9953 234.796 103.157 257.476C128.573 272.194 157.218 276.311 183.964 271.19L185.108 270.971L185.106 270.965C187.345 270.514 189.57 269.997 191.778 269.417L191.78 269.421L192.715 269.167C217.258 262.499 239.655 247.897 255.725 226.473L255.989 226.121L255.989 226.12C258.17 223.189 260.233 220.132 262.168 216.95L262.176 216.99L263.476 214.747C280.866 184.718 283.455 150.182 273.497 119.596C273.497 119.595 273.497 119.595 273.497 119.595L273.202 118.688L273.198 118.689C272.11 115.437 270.88 112.232 269.511 109.082L269.515 109.08L269.1 108.148C269.1 108.148 269.1 108.148 269.1 108.148C259.396 86.3495 242.973 67.2997 220.747 54.4282C191.909 37.7275 158.914 34.6772 129.252 43.2814C124.06 44.7876 118.969 46.6509 114.021 48.8608C92.2755 58.572 73.2747 74.9747 60.4282 97.1573C58.0487 101.266 55.9461 105.46 54.1147 109.716ZM184.416 269.064C184.361 268.92 184.299 268.759 184.229 268.582C183.91 267.766 183.437 266.602 182.819 265.198C181.585 262.393 179.771 258.623 177.451 254.772C175.134 250.926 172.294 246.968 169 243.81C165.711 240.656 161.903 238.238 157.652 237.604C150.594 236.553 145.833 241.023 141.516 245.076L141.387 245.197C136.859 249.448 132.777 253.198 126.731 252.167C124.196 251.735 122.568 250.749 121.523 249.421C120.464 248.073 119.912 246.257 119.764 244.003C119.465 239.448 120.829 233.558 122.29 227.299L122.311 227.209C123.734 221.113 125.23 214.703 125.077 209.264C125 206.516 124.502 203.941 123.31 201.746C122.106 199.53 120.227 197.761 117.504 196.594C109.284 193.074 102.611 197.359 96.3167 201.402L96.1583 201.503C90.1059 205.39 84.3264 209.046 77.1742 207.366C71.2664 205.979 66.3831 201.85 62.366 196.281C58.3512 190.714 55.266 183.795 52.9375 177.004C50.6116 170.221 49.0557 163.612 48.0814 158.695C47.5945 156.237 47.2534 154.206 47.0343 152.79C46.9248 152.083 46.8458 151.529 46.7943 151.154C46.7685 150.966 46.7497 150.823 46.7373 150.728L46.7295 150.666C46.8363 148.295 47.0168 145.922 47.2718 143.551C47.47 144.333 47.6926 145.185 47.9403 146.098C49.2454 150.906 51.2494 157.396 54.0444 164.11C56.837 170.818 60.4343 177.787 64.9388 183.53C69.4392 189.268 74.9044 193.857 81.4484 195.666C89.3503 197.849 96.0778 194.431 102.226 191.307L102.353 191.243C109.262 187.733 115.41 184.673 122.514 188.291C126.8 190.473 128.439 194.325 128.696 199.234C128.956 204.198 127.785 210.032 126.604 215.88L126.579 216.004C125.403 221.83 124.216 227.707 124.693 232.386C124.936 234.769 125.616 236.937 127.024 238.655C128.443 240.388 130.517 241.56 133.35 242.095C139.866 243.326 144.467 239.812 148.715 236.568L148.829 236.481C153.044 233.263 156.953 230.326 162.418 230.918C166.823 231.396 170.852 233.879 174.453 237.475C178.051 241.067 181.149 245.698 183.687 250.311C186.221 254.918 188.176 259.468 189.497 262.87C190.158 264.57 190.659 265.98 190.994 266.963C191.062 267.163 191.123 267.344 191.178 267.507C188.94 268.093 186.685 268.612 184.416 269.064Z" fill="#7B98FF" stroke="#7B98FF" stroke-width="2"/>
</svg>
