<svg width="229" height="250" viewBox="0 0 229 250" fill="none" xmlns="http://www.w3.org/2000/svg">
<path d="M24.1702 78.6641L78.6742 66.321L150.145 110.984L114.728 187.46L62.3446 206.929C62.3446 206.929 77.3618 179.196 64.6349 136.434C51.9079 93.672 24.1702 78.6641 24.1702 78.6641Z" fill="#A0041E"/>
<path d="M-21 161.816C-21 161.816 -1.19889 124.836 20.3282 118.429C41.8553 112.022 78.4183 133.057 78.4183 133.057C78.4183 133.057 58.8616 169.176 37.4842 175.539C16.1067 181.901 -21 161.816 -21 161.816Z" fill="#FFAC33"/>
<path d="M26.1172 163.408C36.3308 168.936 49.0921 165.138 54.6205 154.925C60.1489 144.711 56.3508 131.95 46.1373 126.422C35.9237 120.893 23.1624 124.691 17.634 134.905C12.1056 145.118 15.9037 157.88 26.1172 163.408Z" fill="#FFCC4D"/>
<path d="M228.524 87.6528C228.524 87.6528 182.29 62.6277 101.786 78.8307C61.5333 86.9323 39.0107 128.542 43.2524 142.794C47.494 157.045 89.1038 179.568 127.235 164.341C203.499 133.886 228.524 87.6528 228.524 87.6528Z" fill="#55ACEE"/>
<path d="M174.401 88.2468C166.898 84.1852 158.041 85.1959 151.662 90.0461C154.551 90.2529 157.44 91.0219 160.15 92.4884C170.363 98.0164 174.161 110.779 168.633 120.992C167.166 123.701 165.168 125.925 162.869 127.675C170.86 128.253 178.823 124.254 182.885 116.75C188.413 106.537 184.614 93.7748 174.401 88.2468Z" fill="black"/>
<path d="M29.0061 147.038C29.0061 147.038 39.0161 128.545 46.1419 126.424C53.2677 124.303 133.775 108.107 135.893 115.226C138.012 122.345 61.7463 152.804 54.6205 154.925C47.4947 157.046 29.0061 147.038 29.0061 147.038Z" fill="#A0041E"/>
</svg>
