<svg width="363" height="222" viewBox="0 0 363 222" fill="none" xmlns="http://www.w3.org/2000/svg">
<path d="M181.499 221.824C242.754 221.824 292.411 172.167 292.411 110.912C292.411 49.657 242.754 0 181.499 0C120.244 0 70.5869 49.657 70.5869 110.912C70.5869 172.167 120.244 221.824 181.499 221.824Z" fill="#FFCC4D"/>
<path d="M100.904 160.187C90.6885 160.882 83.3871 156.992 78.0561 150.676C80.2756 156.453 83.107 161.888 86.2288 167.146C94.2252 170.143 102.73 171.398 112.572 164.325C107.77 161.971 103.445 160.021 100.904 160.187ZM234.25 13.5037C234.717 16.9055 232.31 18.6894 226.471 17.2685C216.567 14.8623 207.875 25.3167 202.887 34.0598C193.065 51.2453 152.544 70.6087 152.513 55.705C152.502 48.6628 116.71 64.4481 112.137 57.3748C107.812 50.6956 94.889 53.2677 92.2131 45.261C80.4416 61.2745 72.8289 80.5446 71.0554 101.495C74.9654 108.942 80.0163 114.791 85.0776 117.322C91.9227 120.744 123.722 133.169 128.368 125.235C136.115 112.001 182.6 121.367 181.49 114.407C179.364 101.08 206.662 112.022 216.473 94.8468C221.472 86.1037 232.373 79.3933 242.288 81.7995C253.862 84.6102 268.144 64.7593 267.065 40.3553C258.032 29.3927 246.83 20.3281 234.25 13.5037ZM267.241 181.262C263.736 182.983 260.282 184.3 257.129 184.643C233.814 187.163 228.774 205.437 213.134 202.305C205.075 200.687 194.081 214.896 181.501 215.757C175.164 216.192 166.058 217.219 156.755 218.951C164.72 220.766 172.986 221.824 181.501 221.824C216.048 221.824 246.893 206.029 267.241 181.262Z" fill="#F4900C"/>
<path d="M235.691 14.1876C245.575 19.7364 254.473 26.7682 262.179 34.9616C288.015 33.3333 303.769 39.411 302.452 53.3916C301.767 60.7035 296.384 69.3844 287.61 78.6461C265.747 101.681 222.177 128.387 172.798 147.118C138.479 160.134 107.894 166.824 86.031 167.177C63.7843 167.54 50.5815 161.337 51.7845 148.477C52.5728 140.024 59.5839 129.746 70.9924 118.846C70.7954 116.201 70.5879 113.587 70.5879 110.912C70.5879 102.117 71.7184 93.6017 73.6579 85.3875C29.04 116.325 0 150.396 0 176.967C0 213.132 53.5373 224.24 127.309 207.636C144.422 203.788 162.624 198.446 181.5 191.57C221.949 176.853 259.172 157.344 289.352 136.425C333.96 105.487 363 71.4172 363 44.8456C363 8.69078 309.463 -2.42739 235.691 14.1876Z" fill="#E85E00"/>
<path d="M60.7341 111.441C53.0385 118.815 46.5356 127.247 41.2358 136.146C36.1538 144.982 31.8289 154.929 32.4823 163.848C32.8453 172.726 39.5556 178.015 48.641 180.463C57.7056 182.817 67.7763 183.44 78.0336 182.838C98.3824 181.915 118.793 178.534 138.613 172.83C158.568 167.592 177.931 160.125 196.849 151.713C234.684 134.829 270.154 112.416 301.932 85.523C305.749 82.0693 309.928 78.7919 313.59 75.2967C317.043 71.8016 320.3 67.9019 323.027 63.9193C328.441 55.954 331.594 46.6301 326.502 39.5257C321.42 32.3072 310.997 28.3764 301.061 26.3436C290.886 24.4041 280.214 23.9582 269.635 25.1924C279.924 22.4439 290.762 21.0956 301.662 21.915C312.345 22.8692 324.189 25.0264 332.86 34.5785C337.112 39.3182 339.072 46.4538 338.294 52.687C337.703 59.024 335.255 64.6142 332.455 69.6443C329.572 74.6744 326.336 79.2379 322.654 83.625C319.003 87.8151 315.301 91.6836 311.536 95.687C281.127 126.739 244.744 151.838 205.115 169.936C165.537 187.775 122.413 200.127 77.9506 198.499C66.9984 198.084 55.5795 197.12 44.3887 192.815C38.8503 190.648 33.1668 187.453 28.8315 182.278C24.3822 177.196 22.2457 170.133 22.7228 163.879C23.7392 151.299 30.0243 141.56 36.7138 133.014C43.6005 124.52 51.7213 117.197 60.7341 111.441Z" fill="#F4900C"/>
</svg>
